<?xml version="1.0" encoding="UTF-8"?>
<svg id="Layer_2" data-name="Layer 2" xmlns="http://www.w3.org/2000/svg" viewBox="0 0 1748.24 993.35">
  <g id="Layer_1-2" data-name="Layer 1">
    <g>
      <path d="M1395.43,0c171.4,9.62,317.06,137.38,347.49,306.51,7.45,41.41,12.78,87.8-25.1,116.14-28.96,4.77-59.97,4.38-88.75,9.19-25.46,4.25-19.68,12.18,1.87,15.57,27.52,4.33,57.47,3.85,84.76,8.18,9.7,1.54,23.97,25.7,27.28,34.67,14.39,38.91-4.23,110.95-18.99,149.35-53.12,138.21-185.32,233.47-334.02,239.55l-62.51-.04v93.41c0,6.63-12.83,14.38-18.47,16.5-17.46,6.59-63.12,7.39-74.91-10.08-.97-1.43-3.57-7.13-3.57-8.42v-91.41h-483.72v92.41c0,4.91-7.61,11.86-11.69,14.29-18.42,10.9-82.04,12.88-85.25-15.28l-.05-101.36c-158.05-34.84-276.24-174.11-288.78-335.22-.5-6.44-1.74-20.22-1.06-26.01.17-1.45.12-2.57,1.55-3.45h96.44c.42,58.67,18.58,115.95,53.15,163.15,49.75,67.93,127.46,109.74,212.15,113.61,228.8-1.48,457.92,2.78,686.52-2.17,125.58-15.3,227.89-119.44,239.39-245.53-36.84-12.08-74.98-21.09-111.6-33.79-37.32-12.94-58.32-46.48-41.97-85.44,8.77-20.89,24.83-29.12,44.97-35.97,35.72-12.15,72.65-21.33,108.6-32.79-11.22-123.59-109.74-226.43-232.43-244.5-9.9-1.46-19.85-2-29.78-3.2h-664.7c-80.41,3.84-155.07,42.37-204.74,105.04-38.67,48.79-59.2,109.25-59.57,171.72h-96.44c-1.43-.88-1.38-1.99-1.55-3.45-1.64-13.92,2.89-44.96,5.34-59.7C393.63,140.96,540.87,8.86,713.82,0h681.61Z"/>
      <path d="M836.55,234.06c99.98-3.42,201.44,1.98,301.57-.34,80.53,2.51,201.66,22.91,256.83,86.94,6.51,7.56,18.23,24.45,17.5,34.46-1.23,17.08-24.5,22.36-38.23,19.22-18.42-4.2-16.8-15.47-26.35-27.61-33.83-43.01-124.7-61.36-176.82-66.01-108.08-9.64-223.9,3.1-332.85-2.05-2.72-.16-5.23.96-7.91,1.09-50.07,2.34-103.18,10.08-149.13,30.75-21.04,9.46-52.94,28.43-60.34,51.57-2.83,8.84-3.24,43.18-1.86,52.91,1.63,11.48,16.81,18.68,27.35,18.61l748.36.21c10.09,1.79,20.56,8.21,21.75,19.22-3.8,41.7,10.4,90.6-13.58,127.29-45.01,68.88-176.07,93.95-252.78,96.98l-321.85.05c-76.65-2.91-208.84-28.07-253.73-97.03-6.4-9.83-13.65-21.65-6.02-32.81,8.09-11.84,28.02-13.59,40.41-8.55s12.64,14.46,19.59,24.38c33.3,47.51,145.22,66.82,199.76,69.06h320.9s26.94-2.04,26.94-2.04c33.52-4.05,67.07-9.77,98.97-20.96,28.57-10.02,79.99-34.13,83.42-68.46.84-8.37,1.29-38.3-.22-45.72-1.85-9.12-13.62-15.82-22.27-16.7l-745.61.04c-12.84-.84-25.51-5-29.37-18.59,3.79-48.56-13.06-99.14,21.42-139.31,54.62-63.64,174.3-83.88,254.16-86.61Z"/>
      <path d="M262.86,287.99c20.61-2.23,39.47,12.73,42.19,33.19-5.98,81.52,26.34,183.65-62.29,230.43-53.44,28.21-145.29,7.14-205.09,13.86-32.82-1.04-49.59-39.3-27.96-63.98l237.05-207.6c5.01-2.77,10.29-5.26,16.09-5.89ZM249.75,424.91c-2.01-2-13.5-8.2-16.43-9.05-6.72-1.94-13.4.08-17.64,5.78-4.72,6.34-9.95,17.89-6.81,25.65,2.32,5.72,19.58,14.77,25.61,14.2,6.39-.61,9.71-4.3,12.78-9.28,4.97-8.05,10.61-19.22,2.49-27.3Z"/>
    </g>
  </g>
</svg>